<svg xmlns="http://www.w3.org/2000/svg" width="200" height="200" viewBox="0 0 300 300" stroke-linejoin="round"><style>.a{fill:#d23d39;}.b{fill:#d23d39;stroke-width:2px;stroke:#41100f;}</style><rect width="300" height="300" fill="none"/><g><circle cx="149.5" cy="149.5" r="110.1"/><path d="M122 184.7c0-2.6-2.1-4.7-4.8-4.7l-9.5 0c-2.6 0-4.8 2.1-4.8 4.8l0 59 19 0 0-59Z" class="a"/><path d="M91.8 204.6c0-2.6-2.1-4.8-4.8-4.8l-9.5 0c-2.6 0-4.8 2.1-4.8 4.8l0 39 19 0 0-39Z" class="a"/><path d="M152.2 184.7c0-2.6-2.1-4.7-4.8-4.7l-9.5 0c-2.6 0-4.8 2.1-4.8 4.8l0 59 19 0 0-59Z" class="a"/><path d="M182.5 160.8c0-2.6-2.1-4.8-4.8-4.8l-9.5 0c-2.6 0-4.8 2.1-4.8 4.8l0 82.8 19 0 0-82.8Z" class="a"/><path d="M212.7 122.6c0-2.6-2.1-4.8-4.7-4.8l-9.5 0c-2.6 0-4.7 2.1-4.7 4.8l0 121.1 19 0 0-121.1Z" class="a"/><path d="M242.9 83.1c0-2.6-2.1-4.8-4.7-4.8l-9.5 0c-2.6 0-4.7 2.1-4.7 4.8l0 135.6 19 0 0-135.6Z" class="a"/></g><path d="M149.5 27.4c-67.4 0-122.2 54.7-122.2 122.2 0 67.4 54.7 122.2 122.2 122.2 67.4 0 122.2-54.7 122.2-122.2 0-67.4-54.7-122.2-122.2-122.2Zm0 27.6c52.2 0 94.6 42.4 94.6 94.6 0 52.2-42.4 94.6-94.6 94.6 -52.2 0-94.6-42.4-94.6-94.6 0-52.2 42.4-94.6 94.6-94.6Z" style="fill:#ffdc5c;stroke-width:2px;stroke:#000"/><g><path d="M149.5 257.9c2.2 0 19.4 29.7 18.2 31.6 -1.1 1.9-35.4 1.9-36.5 0 -1.1-1.9 16-31.6 18.2-31.6Z" class="b"/><path d="M41.1 149.5c0 2.2-29.7 19.4-31.6 18.2 -1.9-1.1-1.9-35.4 0-36.5 1.9-1.1 31.6 16 31.6 18.2Z" class="b"/><path d="M226.1 72.9c-1.6-1.6 7.3-34.7 9.4-35.2 2.1-0.6 26.4 23.7 25.8 25.8 -0.6 2.1-33.7 11-35.2 9.4Z" class="b"/><path d="M72.9 72.9c-1.6 1.6-34.7-7.3-35.2-9.4 -0.6-2.1 23.7-26.4 25.8-25.8 2.1 0.6 11 33.7 9.4 35.2Z" class="b"/><path d="M149.5 41.1c2.2 0 19.4-29.7 18.2-31.6 -1.1-1.9-35.4-1.9-36.5 0 -1.1 1.9 16 31.6 18.2 31.6Z" class="b"/><path d="M257.9 149.5c0 2.2 29.7 19.4 31.6 18.2 1.9-1.1 1.9-35.4 0-36.5 -1.9-1.1-31.6 16-31.6 18.2Z" class="b"/><path d="M72.9 226.2c-1.6-1.6-34.7 7.3-35.2 9.4 -0.6 2.1 23.7 26.4 25.8 25.8 2.1-0.6 11-33.7 9.4-35.2Z" class="b"/><path d="M226.2 226.1c-1.6 1.6 7.3 34.7 9.4 35.2 2.1 0.6 26.4-23.7 25.8-25.8 -0.6-2.1-33.7-11-35.2-9.4Z" class="b"/><animateTransform attributeName="transform" type="rotate" from="0 150 150" to="360 150 150" dur="5.0s" repeatCount="indefinite"/></g></svg>
